<?xml version="1.0" encoding="utf-8"?>
<!DOCTYPE svg PUBLIC "-//W3C//DTD SVG 1.1//EN" "http://www.w3.org/Graphics/SVG/1.1/DTD/svg11.dtd">
<svg version="1.1" id="iSearch" xmlns="http://www.w3.org/2000/svg" xmlns:xlink="http://www.w3.org/1999/xlink" x="0px" y="0px" width="100%" height="100%" viewBox="0 0 240 240" preserveAspectRatio="xMidYMid meet">
<g>
	<path fill="#2B2B2B" d="M99.918457,39.8867188c30.9975586,0,56.2163086,25.21875,56.2163086,56.2172852
		c0,30.996582-25.21875,56.2133789-56.2163086,56.2133789c-30.9980469,0-56.2167969-25.2167969-56.2167969-56.2133789
		C43.7016602,65.1054688,68.9204102,39.8867188,99.918457,39.8867188 M99.918457,19.8867188
		c-42.0878906,0-76.2167969,34.1298828-76.2167969,76.2172852c0,42.0952148,34.1289063,76.2133789,76.2167969,76.2133789
		c42.0913086,0,76.2163086-34.1181641,76.2163086-76.2133789C176.1347656,54.0166016,142.0097656,19.8867188,99.918457,19.8867188
		L99.918457,19.8867188z"/>
</g>
<line fill="none" stroke="#2B2B2B" stroke-width="20" stroke-miterlimit="10" x1="145.2431641" y1="147.2900391" x2="208.1259766" y2="210.1611328"/>
</svg>
