<?xml version="1.0" encoding="UTF-8"?>
<!-- Generator: Adobe Illustrator 16.2.0, SVG Export Plug-In . SVG Version: 6.00 Build 0)  -->
<!DOCTYPE svg PUBLIC "-//W3C//DTD SVG 1.1//EN" "http://www.w3.org/Graphics/SVG/1.1/DTD/svg11.dtd">
<svg version="1.1" id="oneOm" xmlns="http://www.w3.org/2000/svg" xmlns:xlink="http://www.w3.org/1999/xlink" x="0px" y="0px" width="240px" height="240px" viewBox="0 0 240 240" enable-background="new 0 0 240 240" xml:space="preserve">
<g display="none">
	<path display="inline" d="M120,7.472l97.452,56.264v112.527L120,232.527l-97.452-56.264V63.736L120,7.472 M120,0.544L16.548,60.272   v119.456L120,239.456l103.452-59.729V60.272L120,0.544L120,0.544z"/>
</g>
<g id="IO_interactive" display="none">
	
		<circle display="inline" fill="none" stroke="#000000" stroke-width="6" stroke-miterlimit="10" cx="120.029" cy="120" r="52.052"/>
	
		<line display="inline" fill="none" stroke="#000000" stroke-width="6" stroke-miterlimit="10" x1="153.513" y1="120" x2="199.173" y2="120"/>
	
		<line display="inline" fill="none" stroke="#000000" stroke-width="6" stroke-miterlimit="10" x1="40.885" y1="120" x2="86.545" y2="120"/>
	<circle display="inline" fill="none" stroke="#000000" stroke-width="6" stroke-miterlimit="10" cx="38.146" cy="120" r="5.479"/>
	<circle display="inline" fill="none" stroke="#000000" stroke-width="6" stroke-miterlimit="10" cx="202.521" cy="120" r="5.479"/>
</g>
<g>
	<path d="M49.554,179.479c-4.676,0-8.479-3.804-8.479-8.479s3.804-8.479,8.479-8.479c4.675,0,8.479,3.804,8.479,8.479   S54.229,179.479,49.554,179.479z M49.554,168.521c-1.367,0-2.479,1.112-2.479,2.479s1.112,2.479,2.479,2.479   c1.367,0,2.479-1.112,2.479-2.479S50.921,168.521,49.554,168.521z"/>
</g>
<g>
	<path d="M192.521,179.479c-4.675,0-8.479-3.804-8.479-8.479s3.804-8.479,8.479-8.479c4.676,0,8.479,3.804,8.479,8.479   S197.196,179.479,192.521,179.479z M192.521,168.521c-1.366,0-2.479,1.112-2.479,2.479s1.112,2.479,2.479,2.479   c1.367,0,2.479-1.112,2.479-2.479S193.888,168.521,192.521,168.521z"/>
</g>
<g>
	<path d="M190,174h-44c-1.657,0-3-1.343-3-3v-5c0-1.111,0.614-2.132,1.597-2.651C161.13,154.598,171,138.393,171,120   c0-27.103-22.857-50-49.913-50c-27.522,0-49.913,22.43-49.913,50c0,18.459,9.804,34.651,26.226,43.315   c0.984,0.52,1.6,1.541,1.6,2.653V171c0,1.657-1.343,3-3,3H52v-6h41v-0.254C75.539,157.834,65.174,140.117,65.174,120   c0-30.878,25.083-56,55.913-56C151.395,64,177,89.645,177,120c0,20.055-10.431,37.783-28,47.775V168h41V174z"/>
</g>
<g>
	<g>
		<path d="M30.877,110.37c2.94-3.313,7.023-4.97,12.25-4.97c5.226,0,9.31,1.657,12.25,4.97c2.94,3.313,4.41,7.957,4.41,13.93    c0,5.975-1.47,10.617-4.41,13.931s-7.024,4.97-12.25,4.97c-5.227,0-9.31-1.656-12.25-4.97s-4.41-7.956-4.41-13.931    C26.467,118.327,27.937,113.684,30.877,110.37z M31.927,124.3c0,9.8,3.733,14.7,11.2,14.7c7.466,0,11.2-4.9,11.2-14.7    s-3.734-14.7-11.2-14.7C35.66,109.6,31.927,114.5,31.927,124.3z"/>
	</g>
	<g>
		<path d="M111.776,106.1l0.07,5.46h0.14c3.36-4.106,7.373-6.16,12.04-6.16c4.246,0,7.326,1.19,9.24,3.57    c1.913,2.38,2.87,6.324,2.87,11.83v21.7h-5.25v-21c0-4.62-0.631-7.758-1.891-9.415c-1.26-1.656-3.384-2.485-6.369-2.485    c-2.428,0-4.785,1.132-7.071,3.395c-2.287,2.264-3.43,4.585-3.43,6.965v22.54h-5.39v-36.4H111.776z"/>
	</g>
	<g>
		<path d="M188.125,125.7c0.279,8.96,4.503,13.439,12.67,13.439c3.173,0,6.626-0.77,10.359-2.31v4.62    c-3.827,1.166-7.443,1.75-10.85,1.75c-5.74,0-10.104-1.575-13.09-4.726c-2.987-3.149-4.48-7.875-4.48-14.175    c0-6.485,1.436-11.258,4.306-14.315c2.869-3.056,6.801-4.585,11.795-4.585c9.8,0,14.699,6.137,14.699,18.41    c0,0.421-0.047,1.051-0.14,1.891H188.125z M188.125,121.57h20.159c-0.14-8.073-3.29-12.11-9.449-12.11    C192.16,109.46,188.591,113.497,188.125,121.57z"/>
	</g>
</g>
</svg>